<svg xmlns="http://www.w3.org/2000/svg" viewBox="0 0 64 64">
  <rect width="64" height="64" rx="16" fill="#aa3450"/>
  <circle cx="32" cy="35" r="19" fill="#fff0cf"/>
  <path d="M16 35c0-10.3 7.2-18.5 16-18.5S48 24.7 48 35" fill="#f6ca68"/>
  <path d="M18 27c3-3.1 5.2-.4 8.2-3.5 2.3-2.4 4.2 1.2 7.2-.8 2.6-1.7 4.4 1.4 7 .4 2.5-1 4.6 1.8 5.8 4.1" fill="none" stroke="#bd7c28" stroke-width="3" stroke-linecap="round"/>
  <path d="M19 36h26l-2.2 7.1A7 7 0 0 1 36.1 48h-8.2a7 7 0 0 1-6.7-4.9L19 36Z" fill="#fff7e5"/>
  <path d="M23 37c3.6 2.4 14.4 2.4 18 0" fill="none" stroke="#bd7c28" stroke-width="2.5" stroke-linecap="round"/>
  <text x="32" y="34" text-anchor="middle" font-family="Georgia, serif" font-size="21" font-weight="700" fill="#aa3450">J</text>
</svg>
